<?xml version="1.0" standalone="no"?>
<!DOCTYPE svg PUBLIC "-//W3C//DTD SVG 20010904//EN"
 "http://www.w3.org/TR/2001/REC-SVG-20010904/DTD/svg10.dtd">
<svg version="1.0" xmlns="http://www.w3.org/2000/svg"
 width="700.000000pt" height="700.000000pt" viewBox="0 0 700.000000 700.000000"
 preserveAspectRatio="xMidYMid meet">
<metadata>
Created by potrace 1.14, written by Peter Selinger 2001-2017
</metadata>
<g transform="translate(0.000000,700.000000) scale(0.100000,-0.100000)"
fill="#000000" stroke="none">
<path d="M3248 6775 c-2 -2 -30 -6 -63 -9 -101 -9 -283 -38 -390 -60 -217 -45
-494 -142 -725 -253 -410 -197 -814 -513 -1090 -853 -25 -30 -47 -57 -50 -60
-43 -43 -196 -268 -274 -404 -136 -236 -278 -577 -322 -771 -1 -5 -9 -38 -18
-72 -18 -69 -61 -292 -70 -363 -28 -220 -29 -667 -2 -840 2 -14 7 -47 11 -75
49 -367 199 -800 394 -1140 59 -102 208 -327 250 -378 10 -12 53 -62 94 -112
121 -145 287 -309 440 -433 308 -251 679 -452 1062 -575 105 -34 276 -80 340
-91 144 -27 205 -37 251 -42 27 -2 83 -9 124 -13 78 -9 566 -7 610 2 14 3 54
8 89 12 35 3 67 7 70 9 3 2 31 7 61 10 82 10 269 53 400 93 351 106 654 254
956 466 61 42 119 85 130 95 11 9 44 37 74 62 30 24 82 69 114 100 313 293
514 556 708 928 75 144 191 427 214 522 2 8 15 56 29 105 37 130 79 345 91
463 3 37 10 90 14 117 8 53 6 576 -3 610 -2 11 -8 47 -11 80 -6 53 -27 182
-41 255 -75 387 -256 817 -488 1165 -33 50 -70 102 -81 117 -12 14 -32 41 -46
59 -135 179 -346 395 -541 554 -398 324 -894 557 -1399 659 -118 23 -146 28
-245 41 -22 2 -62 8 -90 11 -51 7 -571 15 -577 9z m477 -879 c316 -31 599
-114 881 -260 731 -379 1221 -1110 1291 -1926 38 -450 -48 -891 -251 -1295
-264 -522 -709 -931 -1252 -1148 -182 -73 -395 -130 -569 -151 -16 -2 -55 -7
-85 -11 -164 -21 -488 -8 -665 27 -27 5 -61 12 -75 14 -14 3 -59 14 -100 24
-570 145 -1073 503 -1406 1003 -127 190 -241 434 -299 640 -14 50 -29 106 -34
122 -5 17 -13 48 -17 70 -4 22 -8 42 -9 45 0 3 -5 30 -9 60 -4 30 -10 64 -12
75 -30 170 -22 532 16 736 83 435 270 829 546 1149 406 471 1014 782 1614 826
47 4 86 7 87 8 5 4 286 -2 348 -8z"/>
</g>
</svg>
