<svg width="19" height="20" viewBox="0 0 19 20" fill="none" xmlns="http://www.w3.org/2000/svg">
<path d="M12.5031 11.3875C13.1324 11.005 13.6193 10.4271 13.8895 9.74207C14.1598 9.05702 14.1985 8.30238 13.9999 7.59325C13.8013 6.88412 13.3762 6.25941 12.7894 5.81441C12.2026 5.36942 11.4864 5.12855 10.75 5.12855C10.0136 5.12855 9.29736 5.36942 8.71059 5.81441C8.12382 6.25941 7.69871 6.88412 7.50008 7.59325C7.30145 8.30238 7.34022 9.05702 7.61046 9.74207C7.88071 10.4271 8.3676 11.005 8.99688 11.3875C7.77743 11.753 6.70872 12.5028 5.95 13.525C5.89033 13.6046 5.8647 13.7046 5.87877 13.803C5.89283 13.9015 5.94544 13.9903 6.025 14.05C6.09078 14.097 6.16918 14.1231 6.25 14.125C6.30796 14.1236 6.36491 14.1095 6.41677 14.0835C6.46863 14.0576 6.51412 14.0205 6.55 13.975C7.03902 13.323 7.67314 12.7938 8.40213 12.4293C9.13112 12.0648 9.93496 11.875 10.75 11.875C11.565 11.875 12.3689 12.0648 13.0979 12.4293C13.8269 12.7938 14.461 13.323 14.95 13.975C15.0097 14.0546 15.0985 14.1072 15.197 14.1212C15.2954 14.1353 15.3954 14.1097 15.475 14.05C15.5546 13.9903 15.6072 13.9015 15.6212 13.803C15.6353 13.7046 15.6097 13.6046 15.55 13.525C14.7913 12.5028 13.7226 11.753 12.5031 11.3875ZM8.125 8.5C8.125 7.98082 8.27895 7.47331 8.56739 7.04163C8.85583 6.60995 9.2658 6.2735 9.74546 6.07482C10.2251 5.87614 10.7529 5.82415 11.2621 5.92544C11.7713 6.02672 12.239 6.27673 12.6062 6.64384C12.9733 7.01096 13.2233 7.47869 13.3246 7.98789C13.4258 8.49709 13.3739 9.02489 13.1752 9.50454C12.9765 9.9842 12.6401 10.3942 12.2084 10.6826C11.7767 10.971 11.2692 11.125 10.75 11.125C10.0546 11.1225 9.38832 10.8452 8.89657 10.3534C8.40483 9.86168 8.12747 9.19543 8.125 8.5ZM17.5 0.625H4C3.70163 0.625 3.41548 0.743526 3.2045 0.954505C2.99353 1.16548 2.875 1.45163 2.875 1.75V4H1C0.900544 4 0.805161 4.03951 0.734835 4.10983C0.664509 4.18016 0.625 4.27554 0.625 4.375C0.625 4.47446 0.664509 4.56984 0.734835 4.64017C0.805161 4.71049 0.900544 4.75 1 4.75H2.875V7.75H1C0.900544 7.75 0.805161 7.78951 0.734835 7.85983C0.664509 7.93016 0.625 8.02554 0.625 8.125C0.625 8.22446 0.664509 8.31984 0.734835 8.39017C0.805161 8.46049 0.900544 8.5 1 8.5H2.875V11.5H1C0.900544 11.5 0.805161 11.5395 0.734835 11.6098C0.664509 11.6802 0.625 11.7755 0.625 11.875C0.625 11.9745 0.664509 12.0698 0.734835 12.1402C0.805161 12.2105 0.900544 12.25 1 12.25H2.875V15.25H1C0.900544 15.25 0.805161 15.2895 0.734835 15.3598C0.664509 15.4302 0.625 15.5255 0.625 15.625C0.625 15.7245 0.664509 15.8198 0.734835 15.8902C0.805161 15.9605 0.900544 16 1 16H2.875V18.25C2.875 18.5484 2.99353 18.8345 3.2045 19.0455C3.41548 19.2565 3.70163 19.375 4 19.375H17.5C17.7984 19.375 18.0845 19.2565 18.2955 19.0455C18.5065 18.8345 18.625 18.5484 18.625 18.25V1.75C18.625 1.45163 18.5065 1.16548 18.2955 0.954505C18.0845 0.743526 17.7984 0.625 17.5 0.625ZM17.875 18.25C17.875 18.3495 17.8355 18.4448 17.7652 18.5152C17.6948 18.5855 17.5995 18.625 17.5 18.625H4C3.90054 18.625 3.80516 18.5855 3.73484 18.5152C3.66451 18.4448 3.625 18.3495 3.625 18.25V1.75C3.625 1.65054 3.66451 1.55516 3.73484 1.48484C3.80516 1.41451 3.90054 1.375 4 1.375H17.5C17.5995 1.375 17.6948 1.41451 17.7652 1.48484C17.8355 1.55516 17.875 1.65054 17.875 1.75V18.25Z" fill="#212322"/>
</svg>
