<svg height="421" width="134" xmlns="http://www.w3.org/2000/svg"><filter id="a" color-interpolation-filters="sRGB" filterUnits="userSpaceOnUse" height="421" width="134" x="0" y="0"><feFlood flood-opacity="0" result="BackgroundImageFix"/><feColorMatrix in="SourceAlpha" result="hardAlpha" values="0 0 0 0 0 0 0 0 0 0 0 0 0 0 0 0 0 0 127 0"/><feOffset dx="4" dy="4"/><feGaussianBlur stdDeviation="5.5"/><feColorMatrix values="0 0 0 0 0.694118 0 0 0 0 0.654902 0 0 0 0 0.635294 0 0 0 0.4 0"/><feBlend in2="BackgroundImageFix" result="effect1_dropShadow"/><feColorMatrix in="SourceAlpha" result="hardAlpha" values="0 0 0 0 0 0 0 0 0 0 0 0 0 0 0 0 0 0 127 0"/><feOffset dx="2" dy="2"/><feGaussianBlur stdDeviation="3"/><feColorMatrix values="0 0 0 0 0.372549 0 0 0 0 0.360784 0 0 0 0 0.34902 0 0 0 0.12 0"/><feBlend in2="effect1_dropShadow" result="effect2_dropShadow"/><feColorMatrix in="SourceAlpha" result="hardAlpha" values="0 0 0 0 0 0 0 0 0 0 0 0 0 0 0 0 0 0 127 0"/><feOffset dx="-3" dy="-3"/><feGaussianBlur stdDeviation="3"/><feColorMatrix values="0 0 0 0 1 0 0 0 0 1 0 0 0 0 1 0 0 0 0.5 0"/><feBlend in2="effect2_dropShadow" result="effect3_dropShadow"/><feBlend in="SourceGraphic" in2="effect3_dropShadow" result="shape"/></filter><g fill="#fff" filter="url(#a)"><path d="M44.566 80.559c5.75-.426 11.5-.533 17.251-.533h28.432v4.26H38.284l-.533-3.727c10.755-9.584 21.51-19.38 32.265-29.071 6.496-5.75 11.82-11.82 11.82-20.871 0-10.755-7.88-17.145-20.125-17.145-13.311 0-17.997 6.815-18.636 12.779h-5.11C37.964 18.584 44.991 9 61.922 9c15.015 0 25.025 7.667 25.025 21.404 0 10.648-5.963 17.463-13.524 24.278zM84.925 285.012c0-11.288-9.158-18.103-20.765-18.103-2.13 0-8.52.213-11.927 2.769l-2.449-3.301 29.497-28.113H40.094v-4.366h47.28v2.982L59.58 263.288l.106.213c1.704-.319 3.408-.532 5.218-.532 13.737 0 25.13 7.986 25.13 22.149 0 13.417-10.009 24.066-28.857 24.066-10.116 0-18.422-2.875-23-6.922l2.98-3.301c4.9 3.834 11.714 5.751 20.02 5.751 15.76 0 23.747-9.158 23.747-19.7zM42.117 371.159c4.366-9.265 14.802-13.737 23.853-13.737 13.204 0 25.343 9.477 25.343 24.385 0 14.163-11.18 23.64-25.876 23.64-18.209 0-28.644-14.482-28.644-36.205 0-22.362 10.968-40.252 30.561-40.252 7.454 0 14.056 2.662 17.357 5.857-1.17 1.065-2.236 2.13-3.407 3.088-2.769-2.556-8.2-4.472-13.843-4.472-16.4 0-25.557 15.973-25.557 36.098 0 .533 0 1.065.213 1.598zm23.214 29.816c11.5 0 20.978-7.667 20.978-19.381 0-11.926-10.01-19.806-20.765-19.806-10.968 0-24.705 8.093-22.256 21.51 2.13 10.436 11.394 17.89 22.043 17.677zM63.947 214.092C33.598 214.092 9 189.494 9 159.039s24.598-54.947 54.947-54.947 54.947 24.598 54.947 54.947c0 30.348-24.599 54.946-54.947 55.053zm0-104.995c-27.58 0-49.942 22.362-49.942 49.942s22.362 49.942 49.942 49.942c27.58 0 49.942-22.362 49.942-49.942s-22.256-49.942-49.942-49.942z"/></g></svg>
