<svg height="134" width="347" xmlns="http://www.w3.org/2000/svg"><filter id="a" color-interpolation-filters="sRGB" filterUnits="userSpaceOnUse" height="134" width="347" x="0" y="0"><feFlood flood-opacity="0" result="BackgroundImageFix"/><feColorMatrix in="SourceAlpha" result="hardAlpha" values="0 0 0 0 0 0 0 0 0 0 0 0 0 0 0 0 0 0 127 0"/><feOffset dx="4" dy="4"/><feGaussianBlur stdDeviation="5.5"/><feColorMatrix values="0 0 0 0 0.694118 0 0 0 0 0.654902 0 0 0 0 0.635294 0 0 0 0.4 0"/><feBlend in2="BackgroundImageFix" result="effect1_dropShadow"/><feColorMatrix in="SourceAlpha" result="hardAlpha" values="0 0 0 0 0 0 0 0 0 0 0 0 0 0 0 0 0 0 127 0"/><feOffset dx="2" dy="2"/><feGaussianBlur stdDeviation="3"/><feColorMatrix values="0 0 0 0 0.372549 0 0 0 0 0.360784 0 0 0 0 0.34902 0 0 0 0.12 0"/><feBlend in2="effect1_dropShadow" result="effect2_dropShadow"/><feColorMatrix in="SourceAlpha" result="hardAlpha" values="0 0 0 0 0 0 0 0 0 0 0 0 0 0 0 0 0 0 127 0"/><feOffset dx="-3" dy="-3"/><feGaussianBlur stdDeviation="3"/><feColorMatrix values="0 0 0 0 1 0 0 0 0 1 0 0 0 0 1 0 0 0 0.5 0"/><feBlend in2="effect2_dropShadow" result="effect3_dropShadow"/><feBlend in="SourceGraphic" in2="effect3_dropShadow" result="shape"/></filter><g fill="#fff" filter="url(#a)"><path d="M15.815 97.17c5.75-.426 11.5-.532 17.25-.532h28.433v4.259H9.532L9 97.17c10.755-9.583 21.51-19.38 32.265-29.07 6.496-5.75 11.82-11.82 11.82-20.765 0-10.755-7.986-17.144-20.126-17.144-13.31 0-17.89 6.708-18.635 12.778H9.213c0-7.667 7.028-17.25 23.96-17.25 15.014 0 25.023 7.666 25.023 21.403 0 10.649-5.963 17.464-13.523 24.279zM254.876 78.003c0-11.288-9.158-18.103-20.765-18.103-2.129 0-8.519.213-11.926 2.769l-2.449-3.301 29.39-28.112h-39.187V26.89h47.28v2.981l-27.793 26.302.106.213c1.704-.32 3.408-.532 5.112-.532 13.736 0 25.024 7.986 25.024 22.149 0 13.417-10.01 24.172-28.858 24.172-10.116 0-18.422-2.875-23.001-6.921l2.982-3.301c4.898 3.833 11.713 5.75 20.019 5.75 16.08-.107 24.066-9.265 24.066-19.7zM282.562 67.78c4.366-9.264 14.802-13.736 23.853-13.736 13.204 0 25.344 9.477 25.344 24.278 0 14.163-11.181 23.747-25.876 23.747-18.209 0-28.645-14.482-28.645-36.206 0-22.362 10.968-40.145 30.562-40.145 7.454 0 14.056 2.662 17.357 5.857-1.172 1.065-2.236 2.13-3.408 3.088-2.768-2.555-8.093-4.472-13.843-4.472-16.399 0-25.557 15.973-25.557 36.098 0 .533 0 1.065.107 1.598zm23.321 29.816c11.5 0 20.978-7.667 20.978-19.38 0-11.927-10.01-19.807-20.765-19.807-10.968 0-24.705 8.2-22.256 21.51 2.13 10.436 11.394 17.89 22.043 17.677zM135.612 119c-30.349 0-54.947-24.598-54.947-54.947S105.263 9 135.612 9c30.348 0 54.947 24.598 54.947 54.947C190.665 94.295 165.96 119 135.612 119zm0-104.995c-27.58 0-49.942 22.362-49.942 49.942 0 27.58 22.362 49.942 49.942 49.942s49.942-22.362 49.942-49.942c0-27.58-22.256-49.942-49.942-49.942z"/></g></svg>
