<svg width="94" height="20" viewBox="0 0 94 20" fill="none" xmlns="http://www.w3.org/2000/svg">
<path d="M50.0372 0.915552C55.426 0.915552 58.8165 5.80268 58.8165 10.8278C58.8165 15.9365 55.5807 19.1639 51.5464 19.1639C46.0782 19.1639 42.7337 14.2224 42.7337 9.13043C42.742 4.75334 45.3967 0.915552 50.0372 0.915552ZM50.4009 20C56.5589 20 60.8524 15.9908 60.8524 9.77843C60.8315 4.06354 56.5004 0 50.865 0C45.2295 0 40.7354 4.1806 40.7354 9.92057C40.7354 15.7441 44.4017 20 50.4009 20Z" fill="#212322"/>
<path d="M66.3877 2.15312C66.3877 1.10797 66.952 1.16232 67.9178 1.16232C70.5683 1.16232 73.0766 2.26181 73.0766 5.53105C73.0766 8.80028 70.5014 9.33957 69.3433 9.33957C68.0892 9.33957 66.4169 9.46917 66.4169 8.96332L66.3877 2.15312ZM71.6761 9.55278C73.5616 8.80446 75.0666 7.0068 75.0666 4.9165C75.0833 -0.263269 69.1469 0.276028 68.7162 0.276028C67.3157 0.276028 65.7898 0.384724 64.2514 0.384724C63.677 0.38152 63.1033 0.345228 62.5331 0.276028C62.2112 0.276028 62.0022 0.434891 62.0022 0.597935C62.0022 1.50931 64.3015 0.409808 64.3015 2.98506V16.6264C64.3015 18.6665 62.345 18.2986 62.345 18.9675C62.3433 19.0043 62.3489 19.0411 62.3615 19.0757C62.374 19.1103 62.3932 19.1421 62.4181 19.1693C62.4429 19.1965 62.4729 19.2185 62.5063 19.2341C62.5397 19.2497 62.5758 19.2585 62.6126 19.2601C63.6326 19.2601 64.6443 19.1514 65.6602 19.1514C67.8843 19.1514 68.4989 19.2601 68.7413 19.2601C68.9838 19.2601 69.197 19.3145 69.197 19.0469C69.197 18.1314 66.4044 18.9675 66.4044 16.6556V10.9867C66.4044 10.7192 66.2455 10.2342 67.0984 10.2342C70.1126 10.2342 69.707 10.1548 70.6728 11.6598L73.6577 16.3588C74.6778 17.8889 75.7229 19.2601 77.6795 19.2601C77.9219 19.2601 80.0457 19.2601 80.0457 18.9382C80.0457 18.2902 78.1059 19.2894 76.1786 16.3295L71.6761 9.55278Z" fill="#212322"/>
<path d="M79.5231 1.96072C78.8291 0.806873 77.5122 1.1246 77.5122 0.673094C77.5111 0.572273 77.5464 0.474437 77.6117 0.397612C77.677 0.320788 77.7679 0.270152 77.8676 0.255034C78.5908 0.255034 79.0967 0.36791 80.9152 0.36791C81.8015 0.36791 82.5248 0.255034 82.7923 0.255034C82.9805 0.255034 83.2982 0.284298 83.2982 0.522592C83.2982 0.978278 82.044 1.00336 82.044 1.77677C82.0977 2.18118 82.2643 2.56226 82.5248 2.87627L85.7564 8.05604C85.9696 8.37794 86.1326 8.54099 86.2915 8.54099C86.4504 8.54099 86.5841 8.35286 86.7932 8.00169L89.5524 3.52008C89.8946 3.10181 90.0925 2.5842 90.1168 2.04433C90.1168 0.731622 88.1101 1.29182 88.1101 0.652191C88.1101 0.305201 88.3776 0.234131 88.6703 0.234131C89.3099 0.234131 89.983 0.347007 90.6268 0.347007C91.4002 0.347007 92.1778 0.234131 92.9512 0.234131C93.0298 0.244601 93.1023 0.281984 93.1564 0.339915C93.2106 0.397846 93.2429 0.472744 93.248 0.551857C93.248 0.848679 92.7965 0.969917 92.6042 1.06607C91.8852 1.48413 91.534 2.245 91.1076 2.91808L87.345 8.77092C86.927 9.43982 86.7012 9.5736 86.7012 9.97493V16.5845C86.7012 18.9172 88.9002 18.1647 88.9002 18.9967C88.9002 19.2391 88.6577 19.2642 88.2857 19.2642C87.9136 19.2642 86.325 19.1514 85.3592 19.1514C84.1594 19.1514 83.1937 19.2642 82.9512 19.2642C82.7087 19.2642 82.5331 19.2391 82.5331 18.9423C82.5331 18.194 84.5984 18.8922 84.5984 16.9858V10.4933C84.5209 9.98967 84.3069 9.51686 83.9796 9.12627L79.5231 1.96072Z" fill="#212322"/>
<path d="M37.6836 16.7852C37.8174 19.0386 39.7739 18.0394 39.7739 18.9842C39.7739 19.2518 39.4227 19.2518 39.1343 19.2518C38.6243 19.2518 37.6878 19.1305 36.6259 19.1305C35.7898 19.1305 34.9537 19.2518 34.3057 19.2518C34.0674 19.2518 34.0131 19.118 34.0131 19.0093C34.0131 18.2066 35.6853 18.7961 35.6853 16.8145L34.9579 6.42149C34.9579 5.7526 34.8241 5.37634 34.6652 5.37634C34.5064 5.37634 34.2472 5.61882 33.9629 6.17902L28.4152 17.4666C28.2814 17.7049 27.8508 18.8044 27.5791 18.8044C27.3074 18.8044 27.1234 18.215 27.0398 18.0268L21.3375 6.09959C21.2539 5.88638 21.1201 5.80695 21.0114 5.80695C20.9027 5.80695 20.8525 5.94073 20.8316 6.22501L20.0457 15.6105C19.9119 19.1682 22.4495 17.9892 22.4495 18.9549C22.4495 19.2225 22.1569 19.2518 21.7806 19.2518C21.4044 19.2518 20.2296 19.1305 19.4395 19.1305C18.0473 19.1305 17.5916 19.2518 17.0733 19.2518C16.8809 19.2518 16.8015 19.118 16.8015 18.9299C16.8015 18.0185 18.5156 19.118 18.7037 16.3295C19.0256 11.9524 19.3475 9.10962 19.3475 6.26681C19.3475 -0.0375355 17.2572 1.4633 17.2572 0.55193C17.2572 0.309455 17.4662 0.255107 17.7087 0.255107C18.1895 0.255107 18.6744 0.372164 19.1845 0.372164C19.6945 0.372164 20.1585 0.255107 20.6309 0.255107C21.0072 0.255107 21.049 0.710793 21.1911 1.00762L27.5916 14.6322C27.8926 15.1966 28.0097 15.4349 28.1853 15.4349C28.3609 15.4349 28.6034 14.8747 29.0214 13.9884L35.4136 1.16648C35.5682 0.873836 35.7814 0.230023 36.0992 0.255107C36.4169 0.28019 37.2238 0.372164 37.3534 0.372164C37.9721 0.372164 38.1895 0.255107 38.641 0.255107C38.7186 0.263564 38.7899 0.301872 38.8399 0.361939C38.8898 0.422006 38.9144 0.499128 38.9085 0.577013C38.9085 1.43404 36.7639 0.284371 36.8726 3.47417L37.6836 16.7852Z" fill="#212322"/>
<path d="M5.1042 8.09376C5.1042 9.00931 5.04986 9.00931 6.11591 9.00931H9.00889C11.7848 9.00931 11.0699 6.86048 11.7012 6.86048C11.9144 6.86048 11.9938 7.15312 11.9938 7.36633C11.9938 8.31115 11.9604 9.21834 11.9604 10.067C11.9604 10.7652 11.9938 11.4633 11.9938 12.1866C11.9938 12.429 11.8893 12.5377 11.7012 12.5377C10.8651 12.5377 11.7848 10.1757 9.544 10.1757H5.58497C5.02059 10.1757 5.1042 10.6356 5.1042 11.0369V15.97C5.1042 17.5545 4.89099 18.1983 7.13598 18.1983C13.294 18.1983 14.2137 15.4349 14.5482 15.4349C14.7321 15.4349 14.7572 15.7025 14.7572 15.7568C14.7572 16.7225 14.0632 17.6632 13.4236 18.3613C12.5666 19.3354 11.9771 19.281 10.8107 19.281C8.77477 19.281 6.74718 19.118 4.71541 19.1724C3.64935 19.2016 2.52477 19.281 1.45872 19.281C1.21624 19.281 1.04066 19.2267 1.04066 19.0093C1.09083 18.6874 1.36257 18.7376 2.21959 18.307C2.94283 17.9767 3.00136 17.2326 3.00136 15.97V3.76265C3.00136 2.55446 3.00136 1.25429 1.55487 1.04944C1.34166 0.974193 0.752197 0.924026 0.752197 0.610481C0.752197 0.418173 0.91106 0.288574 1.68865 0.288574C6.73464 0.288574 8.1226 0.418173 9.24718 0.418173C9.7823 0.418173 12.2363 0.288574 13.0682 0.288574C13.2773 0.288574 13.3316 0.556133 13.3316 0.878039C13.3316 3.85881 12.9596 4.07202 12.7965 4.07202C12.1527 4.07202 12.5833 2.78439 12.1527 2.16985C11.4629 1.25429 8.69534 1.41316 7.61675 1.41316C5.04986 1.41316 5.10838 1.30864 5.10838 3.1063L5.1042 8.09376Z" fill="#212322"/>
</svg>
