<svg width="222" height="48" xmlns="http://www.w3.org/2000/svg"><path fill="#212322" d="M117.9 2.2c12.9 0 21 11.7 21 23.7 0 12.2-7.7 19.9-17.4 19.9-13.1 0-21.1-11.8-21.1-24 0-10.4 6.4-19.6 17.5-19.6zm.9 45.6c14.7 0 25-9.6 25-24.5C143.7 9.7 133.4 0 119.9 0S95.6 10 95.6 23.7c0 14 8.8 24.1 23.2 24.1zM157 5.2c0-2.5 1.4-2.4 3.7-2.4 6.3 0 12.3 2.6 12.3 10.4s-6.2 9.1-8.9 9.1c-3 0-7 .3-7-.9L157 5.2zm12.6 17.7c4.5-1.8 8.1-6.1 8.1-11.1C177.7-.6 163.5.7 162.5.7c-3.4 0-7 .3-10.7.3-1.4 0-2.7-.1-4.1-.3-.8 0-1.3.4-1.3.8 0 2.2 5.5-.4 5.5 5.7v32.6c0 4.9-4.7 4-4.7 5.6v.3c0 .1.1.2.1.2l.2.2c.1.1.2.1.3.1 2.4 0 4.9-.3 7.3-.3 5.3 0 6.8.3 7.4.3s1.1.1 1.1-.5c0-2.2-6.7-.2-6.7-5.7V26.3c0-.6-.4-1.8 1.7-1.8 7.2 0 6.2-.2 8.6 3.4l7.1 11.2c2.4 3.7 4.9 6.9 9.6 6.9.6 0 5.7 0 5.7-.8 0-1.5-4.6.8-9.2-6.2l-10.8-16.1zm18.8-18.2c-1.7-2.8-4.8-2-4.8-3.1 0-.2.1-.5.2-.7.2-.2.4-.3.6-.3 1.7 0 2.9.3 7.3.3 2.1 0 3.9-.3 4.5-.3.4 0 1.2.1 1.2.6 0 1.1-3 1.1-3 3 .1 1 .5 1.9 1.1 2.6l7.7 12.4c.5.8.9 1.2 1.3 1.2s.7-.5 1.2-1.3l6.6-10.7c.8-1 1.3-2.2 1.4-3.5 0-3.1-4.8-1.8-4.8-3.3 0-.8.6-1 1.3-1 1.5 0 3.1.3 4.7.3 1.9 0 3.7-.3 5.6-.3.2 0 .4.1.5.3.1.1.2.3.2.5 0 .7-1.1 1-1.5 1.2-1.7 1-2.6 2.8-3.6 4.4l-9 14c-1 1.6-1.5 1.9-1.5 2.9v15.8c0 5.6 5.3 3.8 5.3 5.8 0 .6-.6.6-1.5.6s-4.7-.3-7-.3c-2.9 0-5.2.3-5.8.3s-1-.1-1-.8c0-1.8 4.9-.1 4.9-4.7V25.1c-.2-1.2-.7-2.3-1.5-3.3L188.4 4.7zM88.3 40.2c.3 5.4 5 3 5 5.3 0 .6-.8.6-1.5.6-1.2 0-3.5-.3-6-.3-2 0-4 .3-5.6.3-.6 0-.7-.3-.7-.6 0-1.9 4-.5 4-5.2l-1.7-24.9c0-1.6-.3-2.5-.7-2.5s-1 .6-1.7 1.9l-13.3 27c-.3.6-1.3 3.2-2 3.2s-1.1-1.4-1.3-1.9L49.2 14.6c-.2-.5-.5-.7-.8-.7s-.4.3-.4 1l-1.9 22.5c-.3 8.5 5.8 5.7 5.8 8 0 .6-.7.7-1.6.7s-3.7-.3-5.6-.3c-3.3 0-4.4.3-5.7.3-.5 0-.7-.3-.7-.8 0-2.2 4.1.5 4.5-6.2.8-10.5 1.5-17.3 1.5-24.1 0-15.1-5-11.5-5-13.7 0-.6.5-.7 1.1-.7 1.2 0 2.3.3 3.5.3s2.3-.3 3.5-.3c.9 0 1 1.1 1.3 1.8L64.2 35c.7 1.3 1 1.9 1.4 1.9s1-1.3 2-3.5L82.9 2.8c.4-.7.9-2.2 1.6-2.2s2.7.3 3 .3c1.5 0 2-.3 3.1-.3.2 0 .4.1.5.3.1.1.2.3.2.5 0 2-5.1-.7-4.9 6.9l1.9 31.9zM10.4 19.4c0 2.2-.1 2.2 2.4 2.2h6.9c6.6 0 4.9-5.1 6.4-5.1.5 0 .7.7.7 1.2 0 2.3-.1 4.4-.1 6.5 0 1.7.1 3.3.1 5.1 0 .6-.2.8-.7.8-2 0 .2-5.6-5.2-5.6h-9.5c-1.4 0-1.1 1.1-1.1 2.1v11.8c0 3.8-.5 5.3 4.9 5.3 14.7 0 16.9-6.6 17.7-6.6.4 0 .5.6.5.8 0 2.3-1.7 4.6-3.2 6.2-2 2.3-3.5 2.2-6.2 2.2-4.9 0-9.7-.4-14.6-.3-2.6.1-5.2.3-7.8.3-.6 0-1-.1-1-.7.1-.8.8-.7 2.8-1.7 1.7-.8 1.9-2.6 1.9-5.6V9c0-2.9 0-6-3.5-6.5-.4-.2-1.8-.3-1.8-1C0 1 .4.7 2.2.7c12.1 0 15.4.3 18.1.3 1.3 0 7.1-.3 9.1-.3.5 0 .6.6.6 1.4 0 7.1-.9 7.6-1.3 7.6-1.5 0-.5-3.1-1.5-4.6C25.6 3 19 3.4 16.4 3.4c-6.1 0-6-.2-6 4.1v11.9z"/></svg>
